<svg height="492pt" viewBox="0 0 492 492" width="492pt" xmlns="http://www.w3.org/2000/svg" xmlns:xlink="http://www.w3.org/1999/xlink"><linearGradient id="a"><stop offset="0" stop-color="#fff200"/><stop offset="1" stop-color="#cd118c"/></linearGradient><linearGradient id="b" gradientTransform="matrix(1 0 0 -1 0 490)" gradientUnits="userSpaceOnUse" x1="22.3945" x2="477.4699" xlink:href="#a" y1="8.3071" y2="487.9825"/><linearGradient id="c" gradientTransform="matrix(1 0 0 -1 0 490)" gradientUnits="userSpaceOnUse" x1="-2.1752" x2="452.9084" xlink:href="#a" y1="31.6139" y2="511.2893"/><linearGradient id="d" gradientTransform="matrix(1 0 0 -1 0 490)" gradientUnits="userSpaceOnUse" x1="46.9619" x2="502.0373" xlink:href="#a" y1="-14.9975" y2="464.6779"/><path d="m246 0c-135.863281 0-246 110.136719-246 246s110.136719 246 246 246 246-110.136719 246-246c-.152344-135.796875-110.203125-245.847656-246-246zm0 475.601562c-126.804688 0-229.601562-102.796874-229.601562-229.601562s102.796874-229.601562 229.601562-229.601562 229.601562 102.796874 229.601562 229.601562c-.148437 126.746094-102.855468 229.453125-229.601562 229.601562zm0 0" fill="url(#b)"/><path d="m352.601562 123h-16.402343v-8.199219h-16.398438v8.199219h-16.402343v-8.199219h-16.398438v8.199219h-16.398438v-8.199219h-16.402343v8.199219h-16.398438v-8.199219h-16.402343v8.199219h-16.398438v-8.199219h-16.398438v8.199219h-16.402343v-8.199219h-16.398438v8.199219h-16.402343c-4.527344 0-8.199219 3.671875-8.199219 8.199219v229.601562c0 4.527344 3.671875 8.199219 8.199219 8.199219h213.203124c4.527344 0 8.199219-3.671875 8.199219-8.199219v-229.601562c0-4.527344-3.671875-8.199219-8.199219-8.199219zm-8.203124 229.601562h-196.796876v-213.203124h8.199219v8.203124h16.398438v-8.203124h16.402343v8.203124h16.398438v-8.203124h16.398438v8.203124h16.402343v-8.203124h16.398438v8.203124h16.402343v-8.203124h16.398438v8.203124h16.398438v-8.203124h16.402343v8.203124h16.398438v-8.203124h8.199219zm0 0" fill="url(#b)"/><path d="m172.199219 188.601562h147.601562v16.398438h-147.601562zm0 0" fill="url(#c)"/><path d="m172.199219 237.800781h147.601562v16.398438h-147.601562zm0 0" fill="url(#b)"/><path d="m172.199219 287h147.601562v16.398438h-147.601562zm0 0" fill="url(#d)"/></svg>